<mxfile host="65bd71144e">
    <diagram id="CwZ0ysimLwJYkMALXxhX" name="Page-1">
        <mxGraphModel dx="2179" dy="1942" grid="1" gridSize="10" guides="1" tooltips="1" connect="1" arrows="1" fold="1" page="1" pageScale="1" pageWidth="850" pageHeight="1100" math="0" shadow="0">
            <root>
                <mxCell id="0"/>
                <mxCell id="1" parent="0"/>
                <mxCell id="2" value="" style="group" vertex="1" connectable="0" parent="1">
                    <mxGeometry x="-790" y="-1055" width="30" height="670" as="geometry"/>
                </mxCell>
                <mxCell id="3" value="" style="endArrow=none;dashed=1;html=1;rounded=0;fontSize=12;startSize=8;endSize=8;curved=1;strokeWidth=5;" edge="1" parent="2">
                    <mxGeometry width="50" height="50" relative="1" as="geometry">
                        <mxPoint x="14.740000000000009" y="670" as="sourcePoint"/>
                        <mxPoint x="15.149999999999864" y="80" as="targetPoint"/>
                    </mxGeometry>
                </mxCell>
                <mxCell id="4" value="User" style="shape=umlActor;verticalLabelPosition=bottom;verticalAlign=top;html=1;outlineConnect=0;" vertex="1" parent="2">
                    <mxGeometry width="30" height="60" as="geometry"/>
                </mxCell>
                <mxCell id="6" value="" style="group" vertex="1" connectable="0" parent="1">
                    <mxGeometry x="-620" y="-1045" width="120" height="650" as="geometry"/>
                </mxCell>
                <mxCell id="7" value="&lt;span style=&quot;font-size: 20px;&quot;&gt;UI Application&lt;/span&gt;" style="rounded=0;whiteSpace=wrap;html=1;" vertex="1" parent="6">
                    <mxGeometry width="120" height="60" as="geometry"/>
                </mxCell>
                <mxCell id="8" value="" style="endArrow=none;dashed=1;html=1;rounded=0;fontSize=12;startSize=8;endSize=8;curved=1;strokeWidth=5;" edge="1" parent="6">
                    <mxGeometry width="50" height="50" relative="1" as="geometry">
                        <mxPoint x="59.090000000000146" y="650" as="sourcePoint"/>
                        <mxPoint x="59.5" y="60" as="targetPoint"/>
                    </mxGeometry>
                </mxCell>
                <mxCell id="9" value="" style="group" vertex="1" connectable="0" parent="1">
                    <mxGeometry x="-390" y="-1045" width="120" height="649.9999999999998" as="geometry"/>
                </mxCell>
                <mxCell id="10" value="&lt;span style=&quot;font-size: 20px;&quot;&gt;EXTR API SERVER&lt;/span&gt;" style="rounded=0;whiteSpace=wrap;html=1;" vertex="1" parent="9">
                    <mxGeometry width="120" height="60" as="geometry"/>
                </mxCell>
                <mxCell id="11" value="" style="endArrow=none;dashed=1;html=1;rounded=0;fontSize=12;startSize=8;endSize=8;curved=1;strokeWidth=5;" edge="1" parent="9">
                    <mxGeometry width="50" height="50" relative="1" as="geometry">
                        <mxPoint x="59.23000000000002" y="649.9999999999998" as="sourcePoint"/>
                        <mxPoint x="59.63999999999987" y="60" as="targetPoint"/>
                    </mxGeometry>
                </mxCell>
                <mxCell id="17" value="" style="edgeStyle=none;orthogonalLoop=1;jettySize=auto;html=1;rounded=0;endArrow=block;sourcePerimeterSpacing=8;targetPerimeterSpacing=8;curved=1;endFill=1;" edge="1" parent="9">
                    <mxGeometry width="140" relative="1" as="geometry">
                        <mxPoint x="-160" y="95" as="sourcePoint"/>
                        <mxPoint x="50" y="95" as="targetPoint"/>
                        <Array as="points"/>
                    </mxGeometry>
                </mxCell>
                <mxCell id="18" value="POST /userExpenses" style="edgeLabel;html=1;align=center;verticalAlign=middle;resizable=0;points=[];" vertex="1" connectable="0" parent="17">
                    <mxGeometry x="-0.1226" relative="1" as="geometry">
                        <mxPoint as="offset"/>
                    </mxGeometry>
                </mxCell>
                <mxCell id="21" value="" style="edgeStyle=none;orthogonalLoop=1;jettySize=auto;html=1;rounded=0;endArrow=block;endFill=1;sourcePerimeterSpacing=8;targetPerimeterSpacing=8;curved=1;" edge="1" parent="9">
                    <mxGeometry width="140" relative="1" as="geometry">
                        <mxPoint x="270" y="155" as="sourcePoint"/>
                        <mxPoint x="70" y="155" as="targetPoint"/>
                        <Array as="points"/>
                    </mxGeometry>
                </mxCell>
                <mxCell id="22" value="Returns Expenses&amp;nbsp;&lt;br&gt;By UserId" style="edgeLabel;html=1;align=center;verticalAlign=middle;resizable=0;points=[];" vertex="1" connectable="0" parent="21">
                    <mxGeometry x="0.127" relative="1" as="geometry">
                        <mxPoint x="13" as="offset"/>
                    </mxGeometry>
                </mxCell>
                <mxCell id="12" value="" style="group" vertex="1" connectable="0" parent="1">
                    <mxGeometry x="-180" y="-1045" width="136" height="649.9999999999998" as="geometry"/>
                </mxCell>
                <mxCell id="13" value="&lt;span style=&quot;font-size: 20px;&quot;&gt;MONGODB&lt;/span&gt;" style="rounded=0;whiteSpace=wrap;html=1;" vertex="1" parent="12">
                    <mxGeometry width="136" height="60" as="geometry"/>
                </mxCell>
                <mxCell id="14" value="" style="endArrow=none;dashed=1;html=1;rounded=0;fontSize=12;startSize=8;endSize=8;curved=1;strokeWidth=5;" edge="1" parent="12">
                    <mxGeometry width="50" height="50" relative="1" as="geometry">
                        <mxPoint x="70" y="649.9999999999998" as="sourcePoint"/>
                        <mxPoint x="70.40999999999985" y="60" as="targetPoint"/>
                    </mxGeometry>
                </mxCell>
                <mxCell id="19" value="" style="edgeStyle=none;orthogonalLoop=1;jettySize=auto;html=1;rounded=0;endArrow=block;sourcePerimeterSpacing=8;targetPerimeterSpacing=8;curved=1;endFill=1;" edge="1" parent="12">
                    <mxGeometry width="140" relative="1" as="geometry">
                        <mxPoint x="-140" y="104.99999999999989" as="sourcePoint"/>
                        <mxPoint x="60" y="105" as="targetPoint"/>
                        <Array as="points"/>
                    </mxGeometry>
                </mxCell>
                <mxCell id="20" value="Query Requirement&lt;br&gt;With UserId" style="edgeLabel;html=1;align=center;verticalAlign=middle;resizable=0;points=[];" vertex="1" connectable="0" parent="19">
                    <mxGeometry x="-0.1226" relative="1" as="geometry">
                        <mxPoint x="13" as="offset"/>
                    </mxGeometry>
                </mxCell>
                <mxCell id="15" value="" style="edgeStyle=none;orthogonalLoop=1;jettySize=auto;html=1;rounded=0;endArrow=block;sourcePerimeterSpacing=8;targetPerimeterSpacing=8;curved=1;endFill=1;" edge="1" parent="1">
                    <mxGeometry width="140" relative="1" as="geometry">
                        <mxPoint x="-760.0000000000001" y="-955" as="sourcePoint"/>
                        <mxPoint x="-570" y="-955" as="targetPoint"/>
                        <Array as="points"/>
                    </mxGeometry>
                </mxCell>
                <mxCell id="16" value="User Accesses Budget&lt;br&gt;Screen" style="edgeLabel;html=1;align=center;verticalAlign=middle;resizable=0;points=[];" vertex="1" connectable="0" parent="15">
                    <mxGeometry x="-0.1226" relative="1" as="geometry">
                        <mxPoint x="7" as="offset"/>
                    </mxGeometry>
                </mxCell>
                <mxCell id="23" value="" style="group" vertex="1" connectable="0" parent="1">
                    <mxGeometry x="-550" y="-920" width="190" height="50" as="geometry"/>
                </mxCell>
                <mxCell id="24" value="" style="edgeStyle=none;orthogonalLoop=1;jettySize=auto;html=1;rounded=0;endArrow=block;endFill=1;sourcePerimeterSpacing=8;targetPerimeterSpacing=8;curved=1;" edge="1" parent="23">
                    <mxGeometry width="140" relative="1" as="geometry">
                        <mxPoint x="190" y="49.999999999999886" as="sourcePoint"/>
                        <mxPoint x="-10" y="49.999999999999886" as="targetPoint"/>
                        <Array as="points">
                            <mxPoint x="80" y="50"/>
                        </Array>
                    </mxGeometry>
                </mxCell>
                <mxCell id="25" value="API Response" style="edgeLabel;html=1;align=center;verticalAlign=middle;resizable=0;points=[];" vertex="1" connectable="0" parent="24">
                    <mxGeometry x="-0.0617" y="1" relative="1" as="geometry">
                        <mxPoint x="-6" as="offset"/>
                    </mxGeometry>
                </mxCell>
                <mxCell id="26" value="&lt;font style=&quot;font-size: 11px;&quot;&gt;Response Containing&lt;br&gt;Body Objects of User Budgets&lt;/font&gt;" style="text;html=1;align=center;verticalAlign=middle;resizable=0;points=[];autosize=1;strokeColor=none;fillColor=none;" vertex="1" parent="23">
                    <mxGeometry x="10" width="170" height="40" as="geometry"/>
                </mxCell>
                <mxCell id="29" value="" style="edgeStyle=none;orthogonalLoop=1;jettySize=auto;html=1;rounded=0;endArrow=block;endFill=1;sourcePerimeterSpacing=8;targetPerimeterSpacing=8;curved=1;" edge="1" parent="1">
                    <mxGeometry width="140" relative="1" as="geometry">
                        <mxPoint x="-570" y="-840" as="sourcePoint"/>
                        <mxPoint x="-770.0000000000001" y="-840" as="targetPoint"/>
                        <Array as="points"/>
                    </mxGeometry>
                </mxCell>
                <mxCell id="30" value="Displays All Budget&lt;br&gt;By UserId" style="edgeLabel;html=1;align=center;verticalAlign=middle;resizable=0;points=[];" vertex="1" connectable="0" parent="29">
                    <mxGeometry x="0.127" relative="1" as="geometry">
                        <mxPoint x="13" as="offset"/>
                    </mxGeometry>
                </mxCell>
                <mxCell id="31" value="" style="edgeStyle=none;orthogonalLoop=1;jettySize=auto;html=1;rounded=0;endArrow=block;sourcePerimeterSpacing=8;targetPerimeterSpacing=8;curved=1;endFill=1;" edge="1" parent="1">
                    <mxGeometry width="140" relative="1" as="geometry">
                        <mxPoint x="-770.0000000000001" y="-790.0000000000001" as="sourcePoint"/>
                        <mxPoint x="-580" y="-790.0000000000001" as="targetPoint"/>
                        <Array as="points"/>
                    </mxGeometry>
                </mxCell>
                <mxCell id="32" value="User Adds A Budget" style="edgeLabel;html=1;align=center;verticalAlign=middle;resizable=0;points=[];" vertex="1" connectable="0" parent="31">
                    <mxGeometry x="-0.1226" relative="1" as="geometry">
                        <mxPoint x="6" as="offset"/>
                    </mxGeometry>
                </mxCell>
                <mxCell id="35" value="" style="edgeStyle=none;orthogonalLoop=1;jettySize=auto;html=1;rounded=0;endArrow=block;sourcePerimeterSpacing=8;targetPerimeterSpacing=8;curved=1;endFill=1;" edge="1" parent="1">
                    <mxGeometry width="140" relative="1" as="geometry">
                        <mxPoint x="-551" y="-780.0000000000001" as="sourcePoint"/>
                        <mxPoint x="-341" y="-780.0000000000001" as="targetPoint"/>
                        <Array as="points"/>
                    </mxGeometry>
                </mxCell>
                <mxCell id="36" value="POST /addBudget" style="edgeLabel;html=1;align=center;verticalAlign=middle;resizable=0;points=[];" vertex="1" connectable="0" parent="35">
                    <mxGeometry x="-0.1226" relative="1" as="geometry">
                        <mxPoint as="offset"/>
                    </mxGeometry>
                </mxCell>
                <mxCell id="37" value="" style="edgeStyle=none;orthogonalLoop=1;jettySize=auto;html=1;rounded=0;endArrow=block;sourcePerimeterSpacing=8;targetPerimeterSpacing=8;curved=1;endFill=1;" edge="1" parent="1">
                    <mxGeometry width="140" relative="1" as="geometry">
                        <mxPoint x="-321" y="-769" as="sourcePoint"/>
                        <mxPoint x="-121" y="-769" as="targetPoint"/>
                        <Array as="points"/>
                    </mxGeometry>
                </mxCell>
                <mxCell id="38" value="Query Requirements&lt;br&gt;With UserId" style="edgeLabel;html=1;align=center;verticalAlign=middle;resizable=0;points=[];" vertex="1" connectable="0" parent="37">
                    <mxGeometry x="-0.1226" relative="1" as="geometry">
                        <mxPoint as="offset"/>
                    </mxGeometry>
                </mxCell>
                <mxCell id="39" value="" style="edgeStyle=none;orthogonalLoop=1;jettySize=auto;html=1;rounded=0;endArrow=block;endFill=1;sourcePerimeterSpacing=8;targetPerimeterSpacing=8;curved=1;" edge="1" parent="1">
                    <mxGeometry width="140" relative="1" as="geometry">
                        <mxPoint x="-123" y="-729" as="sourcePoint"/>
                        <mxPoint x="-323" y="-729" as="targetPoint"/>
                        <Array as="points"/>
                    </mxGeometry>
                </mxCell>
                <mxCell id="40" value="Budget Existence Check" style="edgeLabel;html=1;align=center;verticalAlign=middle;resizable=0;points=[];" vertex="1" connectable="0" parent="39">
                    <mxGeometry x="0.127" relative="1" as="geometry">
                        <mxPoint x="13" as="offset"/>
                    </mxGeometry>
                </mxCell>
                <mxCell id="41" value="" style="group" vertex="1" connectable="0" parent="1">
                    <mxGeometry x="-540" y="-760" width="190" height="50" as="geometry"/>
                </mxCell>
                <mxCell id="42" value="" style="edgeStyle=none;orthogonalLoop=1;jettySize=auto;html=1;rounded=0;endArrow=block;endFill=1;sourcePerimeterSpacing=8;targetPerimeterSpacing=8;curved=1;" edge="1" parent="41">
                    <mxGeometry width="140" relative="1" as="geometry">
                        <mxPoint x="190" y="49.999999999999886" as="sourcePoint"/>
                        <mxPoint x="-10" y="49.999999999999886" as="targetPoint"/>
                        <Array as="points">
                            <mxPoint x="80" y="50"/>
                        </Array>
                    </mxGeometry>
                </mxCell>
                <mxCell id="43" value="API Response" style="edgeLabel;html=1;align=center;verticalAlign=middle;resizable=0;points=[];" vertex="1" connectable="0" parent="42">
                    <mxGeometry x="-0.0617" y="1" relative="1" as="geometry">
                        <mxPoint x="-6" as="offset"/>
                    </mxGeometry>
                </mxCell>
                <mxCell id="44" value="" style="edgeStyle=none;orthogonalLoop=1;jettySize=auto;html=1;rounded=0;endArrow=block;endFill=1;sourcePerimeterSpacing=8;targetPerimeterSpacing=8;curved=1;" edge="1" parent="1">
                    <mxGeometry width="140" relative="1" as="geometry">
                        <mxPoint x="-570" y="-690.0000000000001" as="sourcePoint"/>
                        <mxPoint x="-770.0000000000001" y="-690.0000000000001" as="targetPoint"/>
                        <Array as="points"/>
                    </mxGeometry>
                </mxCell>
                <mxCell id="45" value="400 Budget Validation Fails" style="edgeLabel;html=1;align=center;verticalAlign=middle;resizable=0;points=[];" vertex="1" connectable="0" parent="44">
                    <mxGeometry x="0.127" relative="1" as="geometry">
                        <mxPoint x="13" as="offset"/>
                    </mxGeometry>
                </mxCell>
                <mxCell id="46" value="" style="edgeStyle=none;orthogonalLoop=1;jettySize=auto;html=1;rounded=0;endArrow=block;endFill=1;sourcePerimeterSpacing=8;targetPerimeterSpacing=8;curved=1;" edge="1" parent="1">
                    <mxGeometry width="140" relative="1" as="geometry">
                        <mxPoint x="-569" y="-650" as="sourcePoint"/>
                        <mxPoint x="-769.0000000000001" y="-650" as="targetPoint"/>
                        <Array as="points"/>
                    </mxGeometry>
                </mxCell>
                <mxCell id="47" value="409 Budget Already Exists" style="edgeLabel;html=1;align=center;verticalAlign=middle;resizable=0;points=[];" vertex="1" connectable="0" parent="46">
                    <mxGeometry x="0.127" relative="1" as="geometry">
                        <mxPoint x="13" as="offset"/>
                    </mxGeometry>
                </mxCell>
                <mxCell id="48" value="" style="edgeStyle=none;orthogonalLoop=1;jettySize=auto;html=1;rounded=0;endArrow=block;sourcePerimeterSpacing=8;targetPerimeterSpacing=8;curved=1;endFill=1;" edge="1" parent="1">
                    <mxGeometry width="140" relative="1" as="geometry">
                        <mxPoint x="-322" y="-630" as="sourcePoint"/>
                        <mxPoint x="-122" y="-630" as="targetPoint"/>
                        <Array as="points"/>
                    </mxGeometry>
                </mxCell>
                <mxCell id="49" value="Create New Budget&lt;br&gt;From User" style="edgeLabel;html=1;align=center;verticalAlign=middle;resizable=0;points=[];" vertex="1" connectable="0" parent="48">
                    <mxGeometry x="-0.1226" relative="1" as="geometry">
                        <mxPoint as="offset"/>
                    </mxGeometry>
                </mxCell>
                <mxCell id="50" value="" style="edgeStyle=none;orthogonalLoop=1;jettySize=auto;html=1;rounded=0;endArrow=block;endFill=1;sourcePerimeterSpacing=8;targetPerimeterSpacing=8;curved=1;" edge="1" parent="1">
                    <mxGeometry width="140" relative="1" as="geometry">
                        <mxPoint x="-125" y="-590" as="sourcePoint"/>
                        <mxPoint x="-325" y="-590" as="targetPoint"/>
                        <Array as="points">
                            <mxPoint x="-225" y="-590"/>
                        </Array>
                    </mxGeometry>
                </mxCell>
                <mxCell id="51" value="Returns Confirmation" style="edgeLabel;html=1;align=center;verticalAlign=middle;resizable=0;points=[];" vertex="1" connectable="0" parent="50">
                    <mxGeometry x="0.127" relative="1" as="geometry">
                        <mxPoint x="13" as="offset"/>
                    </mxGeometry>
                </mxCell>
                <mxCell id="52" value="" style="group" vertex="1" connectable="0" parent="1">
                    <mxGeometry x="-541" y="-620" width="190" height="50" as="geometry"/>
                </mxCell>
                <mxCell id="53" value="" style="edgeStyle=none;orthogonalLoop=1;jettySize=auto;html=1;rounded=0;endArrow=block;endFill=1;sourcePerimeterSpacing=8;targetPerimeterSpacing=8;curved=1;" edge="1" parent="52">
                    <mxGeometry width="140" relative="1" as="geometry">
                        <mxPoint x="190" y="49.999999999999886" as="sourcePoint"/>
                        <mxPoint x="-10" y="49.999999999999886" as="targetPoint"/>
                        <Array as="points">
                            <mxPoint x="80" y="50"/>
                        </Array>
                    </mxGeometry>
                </mxCell>
                <mxCell id="54" value="API Response" style="edgeLabel;html=1;align=center;verticalAlign=middle;resizable=0;points=[];" vertex="1" connectable="0" parent="53">
                    <mxGeometry x="-0.0617" y="1" relative="1" as="geometry">
                        <mxPoint x="-6" as="offset"/>
                    </mxGeometry>
                </mxCell>
                <mxCell id="55" value="&lt;font style=&quot;font-size: 11px;&quot;&gt;Response Containing&lt;br&gt;Body Objects of User Budget&lt;/font&gt;" style="text;html=1;align=center;verticalAlign=middle;resizable=0;points=[];autosize=1;strokeColor=none;fillColor=none;" vertex="1" parent="52">
                    <mxGeometry x="10" width="170" height="40" as="geometry"/>
                </mxCell>
                <mxCell id="56" value="" style="edgeStyle=none;orthogonalLoop=1;jettySize=auto;html=1;rounded=0;endArrow=block;endFill=1;sourcePerimeterSpacing=8;targetPerimeterSpacing=8;curved=1;" edge="1" parent="1">
                    <mxGeometry width="140" relative="1" as="geometry">
                        <mxPoint x="-571" y="-551" as="sourcePoint"/>
                        <mxPoint x="-771.0000000000001" y="-551" as="targetPoint"/>
                        <Array as="points"/>
                    </mxGeometry>
                </mxCell>
                <mxCell id="57" value="Added A New Budget&lt;br&gt;Displayed" style="edgeLabel;html=1;align=center;verticalAlign=middle;resizable=0;points=[];" vertex="1" connectable="0" parent="56">
                    <mxGeometry x="0.127" relative="1" as="geometry">
                        <mxPoint x="13" as="offset"/>
                    </mxGeometry>
                </mxCell>
            </root>
        </mxGraphModel>
    </diagram>
</mxfile>